<?xml version="1.0" encoding="UTF-8"?>
<svg xmlns="http://www.w3.org/2000/svg" version="1.1" viewBox="0 0 954 1350">
  <!-- Generator: Adobe Illustrator 29.1.0, SVG Export Plug-In . SVG Version: 2.1.0 Build 142)  -->
  <defs>
    <style>
      .st0 {
        fill: #ff3040;
      }

      .st1 {
        fill: #fff;
      }

      .st2 {
        fill: #0195f8;
      }

      .st3 {
        fill: #dbdbdb;
      }

      .st4 {
        fill: #1b1464;
      }
    </style>
  </defs>
  <g id="Post">
    <rect class="st1" x="0" y="157.4" width="954" height="1192.6" rx="29.4" ry="29.4"/>
  </g>
  <g id="Share">
    <path d="M275.5,1281.3c-.2,0-.3,0-.5,0h-43.8c-1.3,0-2.4.9-2.5,2.2,0,.7.2,1.4.7,2l15.3,15.6,4.8,21.5c.2.7.6,1.3,1.3,1.7,1.2.6,2.6.3,3.3-.8l20.9-32.3,3-4.5c1.4-2.1,0-4.9-2.4-5.3ZM236.5,1286l30.4.4-19.7,10.6-10.8-11ZM252.9,1316.3l-3.4-15.2,19.6-10.5-16.2,25.7Z"/>
  </g>
  <g id="React">
    <path d="M173.8,1314.7c1.8-3.5,2.9-7.5,2.9-11.7,0-14.1-11.7-25.6-26.1-25.6s-26.1,11.5-26.1,25.6,11.7,25.6,26.1,25.6,7-.7,10.2-2h0s13.3,2.4,13.3,2.4c.7.1,1.3-.4,1.2-1.1l-1.4-13.2h0ZM169.7,1320.5l.3,3.1-3.1-.6-6.6-1.2c-.2,0-.4,0-.6,0-2.8,1.3-5.9,2-9.2,2-11.8,0-21.3-9.4-21.3-20.9s9.5-20.9,21.3-20.9,21.3,9.4,21.3,20.9-1,7.2-2.7,10.2c-.1.2-.2.4-.1.6l.7,6.6Z"/>
    <path d="M893.6,1282.4v42.2c0,.6.5,1.1,1.1,1.1h3.2c.4,0,.7-.1,1-.4l14.2-14.2c.3-.3.8-.3,1,0l14.2,14.2c.3.3.6.4,1,.4h3.2c.6,0,1.1-.5,1.1-1.1v-42.2c0-.7-.5-1.2-1.2-1.2h-37.4c-.7,0-1.2.5-1.2,1.2ZM916.9,1307.1l-2.9-2.9c-.3-.3-.8-.3-1,0l-2.9,2.9h0l-11.3,11.3c-.2.2-.5,0-.5-.2v-31c0-.7.5-1.2,1.2-1.2h27.8c.7,0,1.2.5,1.2,1.2v31c0,.3-.3.4-.5.2l-11.3-11.3Z"/>
  </g>
  <g id="Heart_normal">
    <path d="M76.1,1296.1c0-8.8-7.1-15.9-15.9-15.9s-8.9,2-11.8,5.3c-2.9-3.2-7.1-5.3-11.8-5.3-8.8,0-15.9,7.1-15.9,15.9s1.9,8.5,4.8,11.4h0s23,20.6,23,20.6l21.9-19.8h0c3.5-2.9,5.8-7.3,5.8-12.3ZM67.1,1305.4h0s-18.7,17.1-18.7,17.1l-18.7-17.1h0c-2.7-2.1-4.4-5.4-4.4-9.1,0-6.4,5.2-11.6,11.6-11.6s11.6,4.7,11.6,7c0-2.2,5.2-7,11.6-7s11.6,5.2,11.6,11.6-1.7,7-4.4,9.1Z"/>
    <circle class="st2" cx="409.2" cy="1301.7" r="6.7"/>
    <circle class="st3" cx="429.4" cy="1301.7" r="4.9"/>
    <circle class="st3" cx="449.4" cy="1301.7" r="4.9"/>
    <circle class="st3" cx="469.3" cy="1301.7" r="4.9"/>
    <circle class="st3" cx="489.2" cy="1301.7" r="4.9"/>
    <circle class="st3" cx="509.2" cy="1301.7" r="2.6"/>
  </g>
  <g id="Heart_pressed">
    <path class="st0" d="M76.2,1296.1c0-8.8-7.2-16-16-16s-8.9,2.1-11.9,5.3c-2.9-3.2-7.1-5.3-11.9-5.3-8.8,0-16,7.2-16,16s1.9,8.6,4.9,11.5h0s23.1,20.7,23.1,20.7l22-19.9h0c3.5-2.9,5.8-7.3,5.8-12.3Z"/>
  </g>
  <g id="Photo">
    <rect class="st4" y="270.8" width="954" height="987.6"/>
  </g>
  <g id="Profile_pic">
    <circle class="st4" cx="59.5" cy="217.8" r="31.2"/>
  </g>
</svg>